<?xml version="1.0" standalone="no"?>
<!DOCTYPE svg PUBLIC "-//W3C//DTD SVG 20010904//EN"
 "http://www.w3.org/TR/2001/REC-SVG-20010904/DTD/svg10.dtd">
<svg version="1.0" xmlns="http://www.w3.org/2000/svg"
 width="668.000000pt" height="668.000000pt" viewBox="0 0 668.000000 668.000000"
 preserveAspectRatio="xMidYMid meet">
<metadata>
Created by potrace 1.14, written by Peter Selinger 2001-2017
</metadata>
<g transform="translate(0.000000,668.000000) scale(0.100000,-0.100000)"
fill="#000000" stroke="none">
<path d="M5480 3340 l0 -1180 210 0 c193 0 210 1 211 18 0 9 1 142 1 295 0
307 -6 279 63 279 14 0 31 0 39 -1 12 -1 50 -98 176 -456 24 -66 46 -123 50
-128 3 -4 106 -6 227 -5 l221 3 -65 180 c-35 99 -93 260 -129 357 -35 97 -64
179 -64 181 0 3 18 27 40 53 77 92 157 291 174 429 3 28 8 64 11 80 6 45 7
323 0 375 -21 153 -49 264 -92 359 -83 182 -218 302 -372 331 -29 5 -199 10
-377 10 l-324 0 0 -1180z m645 550 c61 -31 96 -113 101 -241 6 -141 -38 -255
-110 -284 -18 -7 -68 -12 -121 -11 l-90 1 -2 265 c-1 146 0 270 2 276 5 17
183 11 220 -6z"/>
<path d="M1600 3340 l0 -901 1038 4 c570 3 1060 7 1087 11 28 3 88 10 135 16
143 17 170 21 303 46 142 28 332 80 435 121 82 32 289 138 309 158 8 8 17 15
21 15 6 0 38 26 102 84 166 150 240 361 197 563 -15 69 -56 170 -80 196 -7 6
-24 28 -38 47 -88 118 -294 258 -484 329 -33 13 -69 27 -80 32 -34 15 -259 76
-342 93 -110 23 -122 25 -168 31 -22 3 -51 8 -65 10 -53 10 -88 14 -160 21
-41 3 -88 8 -105 11 -16 3 -497 7 -1067 10 l-1038 4 0 -901z m1880 415 c208
-25 405 -102 494 -192 61 -62 89 -126 92 -213 2 -65 -1 -83 -25 -135 -16 -33
-42 -74 -58 -91 -82 -84 -230 -153 -385 -179 -18 -3 -40 -8 -48 -10 -52 -14
-153 -18 -452 -20 l-336 -2 0 421 c0 231 1 423 3 427 5 8 643 3 715 -6z"/>
<path d="M353 4180 c-185 -48 -290 -188 -297 -397 -5 -139 37 -268 112 -346
36 -37 37 -39 17 -53 -132 -95 -187 -226 -181 -424 6 -192 75 -316 214 -385
95 -48 148 -53 540 -54 l362 -1 0 840 0 840 -347 -1 c-304 0 -357 -3 -420 -19z
m382 -382 c8 -5 13 -204 6 -238 -1 -3 -52 -5 -113 -5 -89 1 -119 5 -139 19
-34 22 -51 63 -48 113 5 68 37 104 103 115 34 5 181 2 191 -4z m10 -750 c0
-77 -4 -129 -10 -131 -29 -9 -255 1 -283 12 -44 18 -64 54 -64 116 -1 61 23
110 62 124 14 5 86 9 160 8 l134 -2 1 -127z"/>
</g>
</svg>
