<svg width="262" height="187" viewBox="0 0 262 187" fill="none" xmlns="http://www.w3.org/2000/svg">
<path fill-rule="evenodd" clip-rule="evenodd" d="M153.5 52.5394C151.116 52.5394 148.757 52.5661 146.426 52.6184C148.522 41.0897 151.11 30.3396 153.206 21.6335L153.206 21.6322L153.206 21.6312C156.868 6.41933 159.028 -2.55209 154.436 1.46805C148.458 -6.72956 136.185 20.6117 130.143 53.4269C128.196 53.5789 126.281 53.7495 124.4 53.9378C121.02 42.7816 107.276 31.3026 71.5376 29.5394C55.953 29.5394 28.4998 29.9351 28.4998 37.61C28.4998 42.9094 39.7386 42.6882 53.1038 42.425C59.0947 42.3071 65.5128 42.1807 71.5376 42.5394C98.3634 44.1364 107.843 49.5974 110.75 55.7086C100.324 57.4009 91.5298 59.694 85.1088 62.3979C81.4761 61.1941 77.5691 60.5394 73.4999 60.5394C62.242 60.5394 52.2255 65.5509 45.8231 73.3368C44.4202 71.7268 42.768 70.2695 40.9833 68.9627C37.2855 66.2549 32.8157 64.0425 28.2255 62.3497C19.1584 59.0058 8.96212 57.4574 2.48599 58.5837C0.853633 58.8676 -0.239516 60.421 0.044369 62.0534C0.328253 63.6857 1.88167 64.7789 3.51402 64.495C8.53784 63.6213 17.5915 64.8229 26.1494 67.979C30.3718 69.5362 34.3082 71.5113 37.4385 73.8036C39.5173 75.3257 41.1546 76.924 42.3067 78.557C41.9582 79.2006 41.6316 79.8564 41.3276 80.5235L39.2349 86.7794C39.2349 86.7794 38.4999 91.2225 38.4999 93.5394C38.4999 95.554 38.6913 97.5264 39.0581 99.4414L39.2557 100.093C37.2104 100.82 34.7225 101.396 31.7379 101.978C30.968 102.128 30.1734 102.278 29.3571 102.432L29.3539 102.432C21.9476 103.827 12.7516 105.558 3.90477 111.112C2.50149 111.993 2.07802 113.844 2.95893 115.248C3.83983 116.651 5.69152 117.075 7.09479 116.194C14.9268 111.277 23.0191 109.743 30.4915 108.326C31.2975 108.173 32.0962 108.021 32.8866 107.867C35.629 107.332 38.417 106.747 41.0132 105.842C46.1863 117.974 58.7822 126.539 73.4999 126.539C77.5691 126.539 81.4761 125.885 85.1088 124.681C91.6015 127.415 100.521 129.729 111.101 131.427C108.652 137.864 99.5577 143.748 71.5376 145.416C65.5129 145.774 59.0945 145.648 53.1037 145.53C39.7385 145.267 28.4998 145.046 28.4998 150.345C28.4998 158.02 55.953 158.416 71.5376 158.416C108.187 156.607 121.706 144.582 124.639 133.165C126.466 133.346 128.326 133.51 130.216 133.658C136.283 166.297 148.482 193.388 154.436 185.223C159.028 189.243 156.868 180.272 153.206 165.06C151.134 156.451 148.58 145.844 146.497 134.462C148.805 134.513 151.14 134.539 153.5 134.539C157.246 134.539 160.932 134.473 164.542 134.346C165.328 146.743 177.471 161.404 218.248 163.416C233.833 163.416 261.286 163.02 261.286 155.345C261.286 150.046 250.047 150.267 236.682 150.53C230.691 150.648 224.273 150.774 218.248 150.416C186.105 148.502 178.866 141.041 177.997 133.56C210.197 130.909 233.5 123.172 233.5 114.039C233.5 110.251 229.49 106.703 222.5 103.659V83.42C229.49 80.3754 233.5 76.8274 233.5 73.0394C233.5 63.9195 210.26 56.1905 178.127 53.5291C179.462 46.3469 187.345 39.3791 218.248 37.5394C224.273 37.1807 230.691 37.3071 236.682 37.425C250.048 37.6882 261.286 37.9094 261.286 32.61C261.286 24.9351 233.833 24.5394 218.248 24.5394C178.425 26.5042 165.912 40.5326 164.616 52.7357C160.983 52.6063 157.272 52.5394 153.5 52.5394ZM52.8796 95.5994C53.7994 93.8394 55.0979 92.4994 56.7752 91.5794C55.4767 90.6194 54.5028 89.3594 53.8535 87.7994C53.1771 86.2394 52.839 84.4794 52.839 82.5194C52.839 79.1994 53.8129 76.5394 55.7607 74.5394C57.6815 72.5394 60.5356 71.5394 64.323 71.5394H79.4998V113.539H63.5114C59.6158 113.539 56.6399 112.539 54.5839 110.539C52.5279 108.499 51.4999 105.639 51.4999 101.959C51.4999 99.4794 51.9598 97.3594 52.8796 95.5994ZM133.926 70.5394H91.4998V115.539H133.926C143.517 115.539 151.962 114.639 159.258 112.839C166.636 110.997 172.334 108.382 176.351 104.997C180.45 101.611 182.5 97.6251 182.5 93.0394C182.5 88.4537 180.45 84.4679 176.351 81.0822C172.334 77.6965 166.636 75.1037 159.258 73.3037C151.962 71.4608 143.517 70.5394 133.926 70.5394ZM199.051 107.705H201.913L207.233 122.539H218.5L211.928 104.334C213.835 102.479 215.296 99.9789 216.309 96.8322C217.322 93.6856 217.829 90.0051 217.829 85.7908C217.829 81.2956 217.248 77.3622 216.086 73.9908C214.923 70.6194 213.269 68.0346 211.123 66.2365C208.977 64.4384 206.458 63.5394 203.567 63.5394H188.5V122.539H199.051V107.705ZM206.115 80.7337C206.831 81.9137 207.188 83.5994 207.188 85.7908C207.188 87.9822 206.831 89.696 206.115 90.9322C205.4 92.1122 204.327 92.7022 202.896 92.7022H199.051V78.8794H202.896C204.327 78.8794 205.4 79.4975 206.115 80.7337ZM70.0854 87.6794V81.4394H65.6216C63.5385 81.4394 62.497 82.4794 62.497 84.5594C62.497 86.6394 63.5385 87.6794 65.6216 87.6794H70.0854ZM147.576 100.947C143.886 102.789 138.926 103.711 132.696 103.711H120.521V82.3679H132.696C138.926 82.3679 143.886 83.3108 147.576 85.1965C151.347 87.0394 153.232 89.6537 153.232 93.0394C153.232 96.4251 151.347 99.0608 147.576 100.947ZM64.323 103.639C62.2129 103.639 61.1578 102.539 61.1578 100.339C61.1578 98.1394 62.2129 97.0394 64.323 97.0394H70.0854V103.639H64.323Z" fill="current"/>
</svg>
